
<svg width="90px" height="24px" viewBox="0 0 90 24" version="1.1" xmlns="http://www.w3.org/2000/svg" xmlns:xlink="http://www.w3.org/1999/xlink">
    <g id="Page-1" stroke="none" stroke-width="1" fill="none" fill-rule="evenodd">
        <g id="how-to---setup" transform="translate(-120.000000, -26.000000)" fill="#222C30">
            <g id="menu">
                <g id="logo" transform="translate(120.000000, 26.000000)">
                    <g>
                        <polygon id="t" points="84 4.35714286 84 18.5 87.5 18.5 87.5 8.5 90 8.5 90 5.5 87.5 5.5 87.5 2"></polygon>
                        <path d="M82.5,12 C82.5,16.093 79.66925,19 75.75,19 C71.83075,19 69,16.093 69,12 C69,7.90225 71.83075,5 75.75,5 C79.66925,5 82.5,7.90225 82.5,12 Z M72.500475,12 C72.500475,14.35625 73.83425,15.75 75.75,15.75 C77.66575,15.75 79,14.35625 79,12 C79,9.64175 77.6659875,8.25 75.7502375,8.25 C73.8344875,8.25 72.500475,9.64175 72.500475,12 Z" id="o"></path>
                        <polygon id="l" points="68 1 64.5 3.35815603 64.5 18.5 68 18.5"></polygon>
                        <path d="M60.75,4.5 C59.5073593,4.5 58.5,3.49264069 58.5,2.25 C58.5,1.00735931 59.5073593,0 60.75,0 C61.9926407,0 63,1.00735931 63,2.25 C63,3.49264069 61.9926407,4.5 60.75,4.5 Z M59,18.5 L59,5.5 L62.5,5.5 L62.5,18.5 L59,18.5 Z" id="i"></path>
                        <path d="M45.5,6.25 L45.5,24 L49,21.625 L49,18.75 C49,18.75 49.741,19 50.625,19 C55.19325,19 58,16.31825 58,11.75 C58,7.597 54.92675,5 50.625,5 C48.444,5 46.91425,5.66 45.5,6.25 Z M49,15.5 L49,8.75 C49,8.75 49.91725,8.375 50.625,8.375 C52.80475,8.375 54.5,9.48025 54.5,11.75 C54.5,14.461 52.64475,15.75 50.375,15.75 C49.69725,15.75 49,15.5 49,15.5 Z" id="p"></path>
                        <path d="M45,12 C45,16.093 42.16925,19 38.25,19 C34.33075,19 31.5,16.093 31.5,12 C31.5,7.90225 34.33075,5 38.25,5 C42.16925,5 45,7.90225 45,12 Z M35.000475,12 C35.000475,14.35625 36.33425,15.75 38.25,15.75 C40.16575,15.75 41.5,14.35625 41.5,12 C41.5,9.64175 40.1659875,8.25 38.2502375,8.25 C36.3344875,8.25 35.000475,9.64175 35.000475,12 Z" id="o"></path>
                        <polygon id="t" points="25.5 4.35714286 25.5 18.5 29 18.5 29 8.5 31.5 8.5 31.5 5.5 29 5.5 29 2"></polygon>
                        <path d="M24,18.25 C22.497,18.66275 20.27575,19 18.625,19 C14.8235,19 12.5,17.7665 12.5,13.875 L12.5,5.5 L16,5.5 L16,13.5 C16,15.17925 16.76925,16 18.625,16 C19.1265,16 19.85225,15.865 20.5,15.75 L20.5,5.5 L24,5.5 L24,18.25 Z" id="u"></path>
                        <path d="M7.41860465,10 C7.41860465,8.73325 6.44318605,8.125 5.11627907,8.125 C3.51923256,8.125 2.33327907,8.631 1.27906977,9.25 L1.27906977,6.25 C2.48446512,5.57325 4.03725581,5 5.75581395,5 C8.83069767,5 11,6.24475 11,9.75 L11,18.25 C9.7037907,18.54275 7.74911628,19 6.03081395,19 C2.62311628,19 0,17.78525 0,14.75 C0,12.01025 2.24169767,10.75 6.01162791,10.75 L7.41860465,10.875 L7.41860465,10 Z M7.41860465,13.125 L6.26744186,13 C4.57830233,13 3.58139535,13.52045 3.58139535,14.6387 C3.58139535,15.75895 4.56423256,16.25 6.01162791,16.25 C6.40430233,16.25 6.93613953,16.12 7.41860465,16 L7.41860465,13.125 Z" id="a"></path>
                    </g>
                </g>
            </g>
        </g>
    </g>
</svg>