<svg width="60px" height="60px" viewBox="0 0 60 60" version="1.1" xmlns="http://www.w3.org/2000/svg" xmlns:xlink="http://www.w3.org/1999/xlink">
    <g id="Page-1" stroke="none" stroke-width="1" fill="none" fill-rule="evenodd" opacity="0.677366395">
        <g id="how-to---setup" transform="translate(-150.000000, -1321.000000)" fill="#C5CFD4" fill-rule="nonzero">
            <g id="how-to-videos" transform="translate(120.000000, 1111.000000)">
                <g id="grid---1" transform="translate(0.000000, 180.000000)">
                    <g id="tile">
                        <path d="M84.1935484,58.2135484 L84.1935484,53.2258065 L77.4193548,53.2258065 L77.4193548,54.5448387 L66.7741935,48.7790323 L66.7741935,41.22 C66.7741935,40.7758065 66.7296774,40.3296774 66.6425806,39.8912903 L65.5780645,34.5735484 C65.0487097,31.9229032 62.7029032,30 60,30 C57.2970968,30 54.9512903,31.9229032 54.4209677,34.5735484 L53.3564516,39.8922581 C53.2703226,40.3296774 53.2258065,40.7758065 53.2258065,41.22 L53.2258065,48.7790323 L42.5806452,54.5448387 L42.5806452,53.2258065 L35.8064516,53.2258065 L35.8064516,58.2135484 L30,61.3587097 L30,66.7741935 L32.0187097,66.7741935 L53.2258065,63.086129 L53.2258065,70.7477419 C53.2258065,73.1109677 53.5877419,75.4441935 54.266129,77.7019355 L44.516129,84.6629032 L44.516129,90 L46.5706452,90 L57.4296774,87.2845161 L58.3345161,90 L61.6645161,90 L62.5693548,87.2845161 L73.3132258,89.9709677 L75.483871,90 L75.483871,84.6629032 L65.733871,77.7009677 C66.4122581,75.4432258 66.7741935,73.1109677 66.7741935,70.7467742 L66.7741935,63.0851613 L87.8990323,66.7587097 L90,66.7741935 L90,61.3587097 L84.1935484,58.2135484 Z M37.7419355,55.1612903 L40.6451613,55.1612903 L40.6451613,55.5929032 L37.7419355,57.1654839 L37.7419355,55.1612903 Z M53.2258065,57.2874194 L40.4351613,60.1296774 L40.8551613,62.0196774 L53.2258065,59.2712903 L53.2258065,61.1216129 L31.9354839,64.8241935 L31.9354839,62.5112903 L53.2258065,50.9787097 L53.2258065,57.2874194 Z M46.4516129,88.0345161 L46.4516129,85.6596774 L54.8816129,79.6403226 L56.816129,85.4448387 L46.4516129,88.0345161 Z M60.27,88.0645161 L59.7290323,88.0645161 L56.3032258,77.7851613 C55.5454839,75.5119355 55.1612903,73.143871 55.1612903,70.7467742 L55.1612903,41.22 C55.1612903,40.9025806 55.1922581,40.5832258 55.2551613,40.2716129 L56.3196774,34.953871 C56.6690323,33.2051613 58.2164516,31.9354839 60,31.9354839 C61.7835484,31.9354839 63.3309677,33.2051613 63.6812903,34.9529032 L64.7458065,40.2696774 C64.8077419,40.5832258 64.8387097,40.9025806 64.8387097,41.22 L64.8387097,70.7477419 C64.8387097,73.1448387 64.4545161,75.5129032 63.6967742,77.7851613 L60.27,88.0645161 Z M73.5483871,85.6596774 L73.5483871,88.0345161 L63.183871,85.443871 L65.1183871,79.6393548 L73.5483871,85.6596774 Z M79.3548387,55.1612903 L82.2580645,55.1612903 L82.2580645,57.1654839 L79.3548387,55.5929032 L79.3548387,55.1612903 Z M88.0645161,64.8241935 L66.7741935,61.1216129 L66.7741935,59.2712903 L79.1448387,62.0206452 L79.5648387,60.1306452 L66.7741935,57.2883871 L66.7741935,50.9796774 L88.0645161,62.5122581 L88.0645161,64.8241935 Z M36.3906912,60.6368507 L38.3796415,60.6368507 L38.3796415,62.625801 L36.3906912,62.625801 L36.3906912,60.6368507 Z M81.6205902,60.6367033 L83.6095405,60.6367033 L83.6095405,62.6256536 L81.6205902,62.6256536 L81.6205902,60.6367033 Z" id="Shape"></path>
                    </g>
                </g>
            </g>
        </g>
    </g>
</svg>