
<svg width="35px" height="72px" viewBox="0 0 35 72" version="1.1" xmlns="http://www.w3.org/2000/svg" xmlns:xlink="http://www.w3.org/1999/xlink">
    <defs>
        <polygon id="path-1" points="0 0.6344 7.3597 0.6344 7.3597 24 0 24"></polygon>
        <polygon id="path-3" points="0.590345537 0.001 10.3963767 0.001 10.3963767 14.57432 0.590345537 14.57432"></polygon>
        <polygon id="path-5" points="0.237500754 0.6293 13.637 0.6293 13.637 23.4427829 0.237500754 23.4427829"></polygon>
    </defs>
    <g id="Page-1" stroke="none" stroke-width="1" fill="none" fill-rule="evenodd">
        <g id="how-to---setup" transform="translate(-150.000000, -1134.000000)">
            <g id="how-to-videos" transform="translate(120.000000, 1111.000000)">
                <g id="grid---2" transform="translate(0.000000, 22.000000)">
                    <g id="1/2---left">
                        <g id="Page-1" transform="translate(30.000000, 0.000000)">
                            <g id="Group-3" transform="translate(0.000000, 48.999000)">
                                <mask id="mask-2" fill="white">
                                    <use xlink:href="#path-1"></use>
                                </mask>
                                <g id="Clip-2"></g>
                                <path d="M5.3007,9.6794 C5.6587,8.3284 5.9977,6.9734 6.2067,5.5914 C6.2847,5.0734 6.4267,4.5554 6.5577,4.0424 L7.3597,1.0484 L5.4627,0.6344 C4.1897,5.6634 2.7957,10.7314 1.6627,15.7644 C1.4847,16.5594 1.2837,17.3524 1.1427,18.1494 C1.0417,18.7184 0.9137,19.2724 0.7487,19.8244 C0.5007,20.6544 0.2827,21.4924 0.0567,22.3294 C0.0347,22.4084 0.0137,22.4904 0.0047,22.5704 C-0.0393,22.9544 0.2307,23.5424 0.4857,23.7004 C0.7957,23.9944 1.1967,24.1134 1.5787,23.8674 C1.7497,23.7574 1.8977,23.5934 1.9707,23.3544 C2.2437,22.4744 2.5297,21.5954 2.7767,20.7064 C3.2697,18.9924 4.7217,12.7104 4.6037,12.5284 L5.3007,9.6794 Z" id="Fill-1" fill="#1BDBB8" mask="url(#mask-2)"></path>
                            </g>
                            <path d="M7.2421,38.1823 L6.9371,40.5453 L6.8431,41.2183 L6.7271,41.8873 C6.6901,42.0823 6.6541,42.2733 6.6181,42.4593 L6.5261,43.0153 C6.4731,43.3813 6.4231,43.7403 6.3711,44.0983 C6.3181,44.4553 6.2651,44.8143 6.2111,45.1793 L6.1171,45.7353 C6.0801,45.9213 6.0431,46.1123 6.0041,46.3063 C5.9811,46.4173 5.9581,46.5373 5.9321,46.6613 L5.8661,47.0453 L5.8101,47.4303 C5.7971,47.5553 5.7831,47.6763 5.7711,47.7863 C5.7551,47.9303 5.7381,48.0823 5.7201,48.2383 L5.6421,48.7133 C5.5801,49.0313 5.5181,49.3483 5.4631,49.6303 L7.3591,50.0453 L7.4011,49.7963 L7.4361,49.5463 L7.4881,49.0413 L7.5431,48.0233 L7.5951,47.0033 L7.6401,46.4983 L7.7091,45.9983 L7.8101,45.3933 L7.8691,45.0923 L7.9401,44.7943 L8.0781,44.2483 L8.1981,43.6993 L8.4101,42.5943 L8.6051,41.4863 L8.8161,40.3813 L8.8831,40.0103 L8.9301,39.6373 L8.9881,38.8893 C9.0061,38.7353 9.0281,38.5283 9.0511,38.3283 L9.0601,38.1813 L9.0591,38.0413 L9.0541,37.9773 L9.0441,37.9153 L9.0291,37.8603 L9.0101,37.8093 L8.9911,37.7763 L8.9701,37.7453 L8.9221,37.6923 L8.8111,37.6083 L8.5451,37.4363 L8.4061,37.3683 L8.2611,37.3213 L8.1851,37.3083 L8.1221,37.3063 L8.0571,37.3103 L7.9921,37.3213 L7.9281,37.3383 L7.8631,37.3613 L7.7991,37.3893 L7.7361,37.4243 L7.6761,37.4643 L7.6161,37.5103 L7.5581,37.5613 L7.5041,37.6183 L7.4531,37.6783 L7.4051,37.7453 L7.3611,37.8153 L7.3221,37.8903 L7.2871,37.9693 L7.2691,38.0213 L7.2581,38.0743 L7.2421,38.1823 Z" id="Fill-4" fill="#1BDBB8"></path>
                            <path d="M17.8173,38.0788 C17.2543,37.9088 16.6883,37.7528 16.0993,37.7238 C15.8783,37.7128 15.6633,37.6408 15.4493,37.5758 C15.0383,37.4378 14.6193,37.2978 14.2073,37.1588 L13.8573,39.0678 C15.9423,39.7078 18.0373,40.4018 20.1523,40.7918 C20.4863,40.8528 20.8173,40.9358 21.1573,40.9578 C21.3993,40.9738 21.6323,41.0178 21.8613,41.0968 C22.2053,41.2148 22.5553,41.3038 22.9053,41.3958 C22.9383,41.4048 22.9713,41.4138 23.0063,41.4108 C23.1733,41.3948 23.4643,41.0468 23.5623,40.7748 C23.7283,40.4298 23.8243,40.0228 23.7543,39.6888 C23.7233,39.5398 23.6663,39.4218 23.5663,39.3858 C23.2013,39.2538 22.8383,39.1068 22.4653,38.9968 C21.7493,38.7788 19.1013,38.2438 19.0103,38.3768 L17.8173,38.0788 Z" id="Fill-6" fill="#1BDBB8"></path>
                            <path d="M9.0331,38.6227 L10.0311,38.6667 L10.3141,38.6857 L10.5951,38.7267 C10.6771,38.7407 10.7561,38.7557 10.8341,38.7697 L11.0681,38.7977 C11.2221,38.8087 11.3741,38.8177 11.5251,38.8277 C11.6761,38.8387 11.8271,38.8497 11.9811,38.8597 L12.2151,38.8897 L12.4541,38.9337 C12.5011,38.9417 12.5511,38.9517 12.6031,38.9617 L12.7641,38.9817 L12.9281,38.9907 C12.9801,38.9897 13.0321,38.9877 13.0791,38.9867 C13.1401,38.9857 13.2051,38.9847 13.2711,38.9837 L13.4711,39.0037 C13.6051,39.0257 13.7381,39.0477 13.8571,39.0667 L14.2061,37.1587 L14.1011,37.1467 L13.9941,37.1437 L13.7771,37.1537 L13.3371,37.2207 L12.8951,37.2907 L12.6791,37.3057 L12.4661,37.2957 L12.2111,37.2657 L12.0841,37.2427 L11.9611,37.2067 L11.7331,37.1347 L11.5041,37.0777 L11.0411,36.9927 L10.5751,36.9237 L10.1111,36.8367 L9.9561,36.8107 L9.7981,36.8057 L9.4771,36.8277 C9.4121,36.8267 9.3241,36.8257 9.2391,36.8247 L9.1761,36.8317 L9.1151,36.8477 L9.0871,36.8597 L9.0591,36.8757 L9.0341,36.8957 L9.0111,36.9217 L8.9951,36.9427 L8.9801,36.9677 L8.9531,37.0197 L8.9081,37.1387 L8.8121,37.4177 L8.7721,37.5617 L8.7401,37.7107 L8.7291,37.7867 L8.7231,37.8497 L8.7211,37.9117 L8.7201,37.9747 L8.7211,38.0367 L8.7261,38.0987 L8.7341,38.1577 L8.7441,38.2157 L8.7571,38.2717 L8.7711,38.3257 L8.7891,38.3767 L8.8091,38.4247 L8.8321,38.4687 L8.8561,38.5087 L8.8841,38.5437 L8.9131,38.5747 L8.9441,38.6007 L8.9651,38.6117 L8.9871,38.6177 L9.0331,38.6227 Z" id="Fill-8" fill="#1BDBB8"></path>
                            <path d="M23.997,59.404 C24.232,58.131 24.452,56.854 24.542,55.562 C24.576,55.077 24.672,54.589 24.76,54.106 L25.309,51.286 L23.389,51.012 C22.528,55.751 21.588,60.539 20.938,65.284 C20.836,66.033 20.712,66.782 20.648,67.531 C20.603,68.065 20.529,68.588 20.42,69.111 C20.257,69.899 20.121,70.692 19.981,71.484 C19.968,71.559 19.955,71.635 19.954,71.711 C19.949,72.071 20.275,72.595 20.545,72.723 C20.883,72.973 21.294,73.053 21.648,72.798 C21.807,72.683 21.936,72.521 21.986,72.295 C22.168,71.46 22.364,70.626 22.522,69.786 C22.837,68.163 23.69,62.249 23.56,62.088 L23.997,59.404 Z" id="Fill-10" fill="#1BDBB8"></path>
                            <path d="M24.286,40.2956 L24.154,42.5026 L24.109,43.1326 L24.044,43.7596 C24.021,43.9416 24,44.1196 23.978,44.2956 L23.929,44.8166 C23.904,45.1586 23.88,45.4926 23.855,45.8286 C23.831,46.1626 23.806,46.4976 23.78,46.8406 L23.728,47.3596 C23.707,47.5356 23.684,47.7146 23.661,47.8976 C23.647,48.0006 23.634,48.1136 23.618,48.2316 L23.582,48.5906 L23.557,48.9496 C23.554,49.0666 23.55,49.1796 23.547,49.2826 C23.542,49.4176 23.537,49.5596 23.531,49.7046 L23.492,50.1496 C23.456,50.4476 23.42,50.7456 23.389,51.0106 L25.31,51.2836 L25.332,51.0516 L25.347,50.8166 L25.356,50.3466 L25.33,49.3996 L25.3,48.4526 L25.306,47.9826 L25.335,47.5156 L25.39,46.9486 L25.425,46.6666 L25.473,46.3876 L25.567,45.8736 L25.645,45.3576 L25.773,44.3226 L25.886,43.2866 L26.015,42.2516 L26.053,41.9046 L26.073,41.5566 L26.077,40.8606 C26.084,40.7166 26.092,40.5246 26.099,40.3386 L26.098,40.2006 L26.088,40.0716 L26.077,40.0126 L26.063,39.9556 L26.045,39.9046 L26.021,39.8586 L26,39.8286 L25.977,39.8016 L25.925,39.7556 L25.809,39.6826 L25.532,39.5366 L25.389,39.4806 L25.24,39.4436 L25.164,39.4376 L25.1,39.4386 L25.037,39.4446 L24.973,39.4586 L24.909,39.4776 L24.847,39.5016 L24.785,39.5316 L24.724,39.5666 L24.667,39.6076 L24.611,39.6526 L24.557,39.7026 L24.508,39.7576 L24.461,39.8166 L24.418,39.8806 L24.379,39.9486 L24.345,40.0206 L24.316,40.0956 L24.303,40.1446 L24.295,40.1936 L24.286,40.2956 Z" id="Fill-12" fill="#1BDBB8"></path>
                            <path d="M11.0507,24.7868 C10.8397,25.5058 10.6347,26.2238 10.5487,26.9698 C10.5167,27.2488 10.4247,27.5218 10.3367,27.7918 C10.1517,28.3118 9.9637,28.8388 9.7787,29.3588 L11.6637,29.8198 C12.5677,27.1528 13.4457,24.4208 13.9297,21.6578 C14.0057,21.2228 14.1027,20.7888 14.1327,20.3488 C14.1547,20.0338 14.2097,19.7298 14.2917,19.4278 C14.4157,18.9718 14.5157,18.5118 14.6087,18.0498 C14.6177,18.0058 14.6267,17.9618 14.6237,17.9168 C14.6097,17.7018 14.2577,17.3648 13.9857,17.2698 C13.6367,17.0968 13.2257,17.0188 12.8887,17.1428 C12.7377,17.1978 12.6177,17.2838 12.5817,17.4128 C12.4487,17.8908 12.2987,18.3638 12.1817,18.8448 C11.9667,19.7738 11.3137,23.1568 11.4307,23.2648 L11.0507,24.7868 Z" id="Fill-14" fill="#1BDBB8"></path>
                            <path d="M10.4725,35.9929 L10.6955,34.7169 L10.7635,34.3539 L10.8515,33.9959 C10.8785,33.8919 10.9065,33.7909 10.9325,33.6909 L10.9975,33.3929 C11.0335,33.1949 11.0675,33.0019 11.1015,32.8079 C11.1335,32.6149 11.1665,32.4209 11.2015,32.2229 L11.2645,31.9249 C11.2905,31.8249 11.3175,31.7229 11.3435,31.6189 C11.3595,31.5589 11.3755,31.4959 11.3925,31.4289 L11.4345,31.2219 L11.4665,31.0139 C11.4715,30.9449 11.4775,30.8789 11.4825,30.8179 C11.4905,30.7399 11.4975,30.6569 11.5055,30.5719 L11.5505,30.3149 C11.5895,30.1439 11.6285,29.9729 11.6625,29.8219 L9.7785,29.3599 L9.7535,29.4929 L9.7375,29.6279 L9.7225,29.9009 L9.7345,30.4589 L9.7455,31.0179 L9.7325,31.2929 L9.6935,31.5599 L9.6255,31.8829 L9.5845,32.0419 L9.5315,32.1969 L9.4255,32.4809 L9.3325,32.7679 L9.1765,33.3489 L9.0315,33.9329 L8.8675,34.5129 L8.8165,34.7079 L8.7835,34.9069 L8.7475,35.3109 C8.7365,35.3939 8.7195,35.5049 8.7025,35.6119 L8.6985,35.6919 L8.7025,35.7689 L8.7105,35.8059 L8.7225,35.8419 L8.7385,35.8759 L8.7585,35.9069 L8.7785,35.9289 L8.7995,35.9489 L8.8485,35.9859 L8.9575,36.0529 L9.2225,36.1919 L9.3595,36.2539 L9.5025,36.3049 L9.5765,36.3239 L9.6385,36.3369 L9.7015,36.3449 L9.7645,36.3489 L9.8265,36.3509 L9.8895,36.3489 L9.9515,36.3439 L10.0105,36.3349 L10.0705,36.3229 L10.1265,36.3069 L10.1805,36.2879 L10.2325,36.2649 L10.2805,36.2399 L10.3255,36.2109 L10.3665,36.1789 L10.4025,36.1429 L10.4345,36.1039 L10.4505,36.0789 L10.4595,36.0509 L10.4725,35.9929 Z" id="Fill-16" fill="#1BDBB8"></path>
                            <g id="Group-20" transform="translate(8.000000, 0.999000)">
                                <mask id="mask-4" fill="white">
                                    <use xlink:href="#path-3"></use>
                                </mask>
                                <g id="Clip-19"></g>
                                <path d="M5.8612,0.9109 C5.2312,0.4009 4.3782,0.0459 3.5202,0.0129 C3.1112,-0.0251 2.6112,0.0249 2.1572,0.2009 C1.7142,0.3579 1.1632,0.7399 0.8882,1.2619 C0.6752,1.6389 0.5802,2.1189 0.5912,2.5189 C0.5972,2.8999 0.6612,3.2139 0.7182,3.4829 L1.3092,6.3069 L3.1872,5.8159 L2.7962,4.0469 C2.6812,3.4749 2.4812,2.7819 2.5052,2.4639 C2.5152,2.3289 2.5552,2.2869 2.6152,2.2279 C2.6462,2.2029 2.6732,2.1889 2.7152,2.1729 C2.7672,2.1479 2.8372,2.1249 2.9162,2.1079 C3.2132,2.0379 3.7012,2.1119 4.0482,2.2589 C4.7782,2.5579 5.4032,3.3549 5.8612,4.3059 C6.3302,5.2499 6.6562,6.3319 6.9132,7.4199 C7.0802,8.1489 7.2282,8.9039 7.4352,9.6269 C7.5832,10.1439 7.6982,10.6609 7.7832,11.1899 C7.9122,11.9869 8.0682,12.7779 8.2242,13.5699 C8.2392,13.6449 8.2542,13.7219 8.2802,13.7929 C8.4062,14.1309 8.8992,14.5049 9.1952,14.5259 C9.6012,14.6389 10.0132,14.5639 10.2522,14.1969 C10.3592,14.0339 10.4222,13.8359 10.3862,13.6059 C10.2552,12.7619 10.1392,11.9129 9.9882,11.0719 C9.8382,10.2519 9.4592,8.4079 9.0682,6.7009 C8.6682,4.9299 7.8892,3.4249 7.7742,3.3949 C7.3312,2.5129 6.7752,1.6089 5.8612,0.9109" id="Fill-18" fill="#1BDBB8" mask="url(#mask-4)"></path>
                            </g>
                            <path d="M14.4325,17.0974 L13.7275,14.9944 L13.5335,14.3944 L13.3575,13.7864 C13.3085,13.6084 13.2615,13.4344 13.2145,13.2634 L13.0635,12.7624 C12.9555,12.4354 12.8515,12.1154 12.7465,11.7944 C12.6415,11.4754 12.5365,11.1554 12.4305,10.8274 L12.2795,10.3264 C12.2325,10.1554 12.1855,9.9814 12.1365,9.8034 C12.1085,9.7014 12.0785,9.5914 12.0475,9.4784 L11.9435,9.1304 L11.8285,8.7874 C11.7865,8.6784 11.7455,8.5744 11.7085,8.4764 C11.6615,8.3504 11.6125,8.2174 11.5615,8.0794 L11.4255,7.6544 C11.3435,7.3644 11.2605,7.0754 11.1875,6.8174 L9.3105,7.3084 L9.3795,7.5324 L9.4565,7.7524 L9.6295,8.1904 L10.0185,9.0534 L10.4095,9.9164 L10.5845,10.3534 L10.7355,10.7964 L10.9015,11.3414 L10.9765,11.6164 L11.0375,11.8914 L11.1465,12.4034 L11.2685,12.9104 L11.5425,13.9164 L11.8285,14.9184 L12.0975,15.9264 L12.1925,16.2624 L12.3045,16.5934 L12.5595,17.2414 C12.6075,17.3764 12.6715,17.5584 12.7335,17.7344 L12.7855,17.8614 L12.8435,17.9774 L12.8755,18.0284 L12.9105,18.0754 L12.9465,18.1164 L12.9855,18.1494 L13.0155,18.1694 L13.0465,18.1864 L13.1135,18.2094 L13.2475,18.2354 L13.5595,18.2674 L13.7135,18.2664 L13.8645,18.2444 L13.9385,18.2234 L13.9965,18.1994 L14.0535,18.1684 L14.1075,18.1324 L14.1595,18.0914 L14.2085,18.0454 L14.2545,17.9934 L14.2965,17.9394 L14.3355,17.8794 L14.3705,17.8174 L14.4025,17.7504 L14.4275,17.6804 L14.4495,17.6084 L14.4645,17.5334 L14.4755,17.4554 L14.4805,17.3754 L14.4795,17.2944 L14.4735,17.2444 L14.4625,17.1954 L14.4325,17.0974 Z" id="Fill-21" fill="#1BDBB8"></path>
                            <g id="Group-25" transform="translate(21.000000, 15.999000)">
                                <mask id="mask-6" fill="white">
                                    <use xlink:href="#path-5"></use>
                                </mask>
                                <g id="Clip-24"></g>
                                <path d="M11.62,10.3493 L11.716,10.2873 L11.763,10.2483 C11.842,10.1663 11.916,10.0763 11.988,9.9823 C12.277,9.6133 12.516,9.1593 12.631,8.6613 C12.766,8.1603 12.72,7.4913 12.517,7.0123 C12.421,6.7593 12.289,6.5313 12.14,6.3163 C12.058,6.2133 11.978,6.1103 11.889,6.0133 C11.818,5.9423 11.636,5.7643 11.711,5.8413 C11.669,5.8083 11.616,5.7853 11.551,5.7883 C11.515,5.7883 11.476,5.8023 11.437,5.8203 C11.458,5.8113 11.478,5.8003 11.497,5.7823 C11.525,5.7553 11.565,5.7143 11.6,5.6693 L11.649,5.6033 C11.717,5.4723 11.81,5.2913 11.87,5.1273 C11.999,4.7893 12.09,4.4303 12.113,4.0543 C12.202,3.0933 11.783,2.0543 11.111,1.3963 C10.944,1.2263 10.764,1.0713 10.569,0.9363 C10.472,0.8693 10.375,0.8003 10.269,0.7453 L10.192,0.7023 C10.17,0.6893 10.173,0.6913 10.187,0.6993 L10.186,0.6963 L10.183,0.6893 C10.173,0.6693 10.174,0.6583 10.183,0.6493 C10.191,0.6423 10.207,0.6353 10.224,0.6293 C9.126,1.0043 8.145,1.3283 6.79,1.7563 C6.271,2.2473 6.535,2.1043 6.153,2.6183 C6.967,2.4883 7.791,2.3733 8.377,2.3133 L8.802,2.2753 L9.097,2.3413 C9.143,2.3543 9.199,2.3583 9.238,2.3813 L9.311,2.4173 L9.339,2.4333 C9.374,2.4563 9.413,2.4723 9.446,2.4983 C9.726,2.6843 9.948,2.9403 10.08,3.2123 C10.204,3.4873 10.241,3.7743 10.19,4.0793 C10.16,4.2303 10.122,4.3823 10.052,4.5263 C10.039,4.5633 10.016,4.5963 9.999,4.6313 C9.974,4.6723 9.983,4.6793 9.902,4.7803 L9.716,5.0223 C9.619,5.0973 9.497,5.1693 9.388,5.2433 C9.56,5.8473 9.562,6.0843 9.522,6.2123 L9.505,6.2533 L9.496,6.2743 C9.494,6.2803 9.326,6.3233 9.249,6.3463 L8.654,6.5133 L8.505,6.5543 L8.431,6.5763 L8.421,6.5783 L8.419,6.5783 C8.217,6.6293 10.167,6.1393 9.342,6.3473 L9.342,6.3463 L9.345,6.3453 L9.349,6.3413 L9.391,6.3173 C9.539,6.2323 9.499,6.2383 9.572,6.2623 C9.677,6.3163 9.878,6.6523 10.175,7.2453 L10.229,7.2973 C10.224,7.2953 10.337,7.3823 10.312,7.3673 L10.342,7.3993 C10.36,7.4213 10.384,7.4383 10.398,7.4643 C10.434,7.5123 10.47,7.5593 10.495,7.6113 C10.553,7.7113 10.592,7.8173 10.601,7.9083 C10.62,8.0103 10.611,8.0493 10.589,8.1523 C10.566,8.2693 10.515,8.3803 10.455,8.4933 C10.397,8.6053 10.308,8.7143 10.212,8.8233 L10.048,8.9913 L9.784,9.1933 C9.618,9.3313 9.369,9.4423 9.132,9.5663 L5.142,11.1203 C6.437,11.4643 8.733,11.8203 10.224,12.3053 C10.409,12.3703 10.601,12.4463 10.749,12.5373 C10.815,12.5723 10.862,12.6083 10.916,12.6433 C11.021,12.7133 11.1,12.7893 11.174,12.8603 C11.303,13.0043 11.373,13.1483 11.402,13.3003 C11.465,13.5633 11.349,13.9383 10.983,14.3283 C10.62,14.7073 10.126,15.0053 9.585,15.1453 C8.59,15.4283 7.308,15.3783 5.896,15.6973 C4.884,15.9103 3.828,16.3903 2.975,17.0283 C1.672,18.0033 0.742,19.4193 0.336,21.0093 C0.289,21.1583 0.269,21.3173 0.25,21.4693 C0.157,22.2173 0.603,23.1623 0.924,23.2603 C1.334,23.5793 1.742,23.4733 2.004,22.9953 C2.131,22.7803 2.216,22.5273 2.266,22.2023 C2.429,20.9993 3.074,19.8683 3.952,19.0623 C4.384,18.6693 5.136,18.1103 6.235,17.8923 C7.363,17.6303 8.92,17.7503 10.602,17.1983 C11.46,16.8843 12.182,16.3873 12.73,15.7493 C13.282,15.1273 13.637,14.2993 13.637,13.5173 C13.644,12.7313 13.337,12.1453 13.086,11.7913 C12.824,11.4343 12.616,11.2873 12.578,11.2723 C12.439,11.1353 12.292,11.0243 12.143,10.9153 L11.918,10.7663 L11.76,10.6753 C11.699,10.6393 11.639,10.6103 11.578,10.5853 L11.405,10.5253 C11.353,10.5083 11.258,10.4993 11.376,10.4703 C11.467,10.4353 11.55,10.3953 11.62,10.3493" id="Fill-23" fill="#1BDBB8" mask="url(#mask-6)"></path>
                            </g>
                            <path d="M17.3749,15.3415 C18.5269,14.9615 19.6969,14.6245 20.8779,14.3315 L21.8929,14.0965 L22.9159,13.9045 C23.2169,13.8565 23.5099,13.8095 23.7989,13.7625 L24.6509,13.6285 C25.2109,13.5355 25.7609,13.4585 26.3109,13.3855 C26.8719,13.3175 27.3999,13.2425 27.9049,13.2425 C28.1639,13.2455 28.4119,13.2675 28.6429,13.3105 C28.8739,13.3585 29.0879,13.4315 29.2619,13.5305 C29.3639,13.5845 29.4499,13.6575 29.5309,13.7355 C29.6079,13.8185 29.6849,13.9065 29.7309,14.0155 C29.7919,14.1155 29.8199,14.2235 29.8459,14.3385 C29.8689,14.4515 29.8719,14.5735 29.8669,14.6935 C29.8449,14.8495 29.8179,15.0255 29.7469,15.2125 C29.7159,15.3075 29.6649,15.4025 29.6219,15.4965 C29.6019,15.5455 29.5719,15.5925 29.5469,15.6395 C29.5129,15.7025 29.4549,15.8055 29.3999,15.8805 C28.9569,16.5295 28.3009,17.1905 27.7939,17.7505 C29.1479,17.3245 30.1269,17.0025 31.2249,16.6285 L31.2149,16.6305 C31.2079,16.6315 31.1969,16.6305 31.1969,16.6305 C31.1799,16.6285 31.1679,16.6175 31.1609,16.5995 C31.1169,16.6515 31.2509,16.4075 31.2969,16.2785 C31.3609,16.1295 31.4189,15.9685 31.4709,15.8045 C31.5699,15.4725 31.6509,15.1185 31.6539,14.7275 C31.6869,13.9455 31.3539,13.1045 30.7779,12.5865 C30.4969,12.3145 30.1689,12.1165 29.8449,11.9845 C29.5219,11.8425 29.2019,11.7645 28.8929,11.7155 C28.5159,11.6505 28.1499,11.6295 27.7969,11.6305 C27.6189,11.6275 27.4449,11.6325 27.2719,11.6415 L26.7669,11.6635 L25.8779,11.7175 L24.9919,11.8015 C24.4019,11.8725 23.8139,11.9515 23.2289,12.0445 C22.6419,12.1395 22.0589,12.2465 21.4769,12.3625 C20.8939,12.4725 20.3119,12.5925 19.7319,12.7225 L19.1519,12.8615 L18.5789,13.0245 L17.4579,13.4005 C17.2259,13.4785 16.9139,13.5815 16.6129,13.6825 L16.4589,13.7385 L16.8549,14.1175 C16.8549,14.1175 16.8539,14.1235 16.8499,14.1285 C16.8499,14.1285 16.8709,14.1045 16.9209,14.0825 C16.9419,14.0725 16.9679,14.0665 16.9889,14.0615 C17.0099,14.0565 17.0299,14.0565 17.0429,14.0545 L17.0699,14.0545 C17.0759,14.0555 17.0759,14.0555 17.0709,14.0545 L17.0609,14.0515 L17.0429,14.0465 L16.9959,14.0265 C16.9589,14.0035 16.9269,13.9855 16.8959,13.9525 C16.8259,13.8915 16.7709,13.7925 16.7709,13.6895 C16.7629,13.6355 16.7659,13.5835 16.7759,13.5295 C16.7749,13.4785 16.7779,13.4245 16.7859,13.3715 L16.7709,13.2955 L16.7359,13.2395 L16.6779,13.1905 L16.5929,13.1515 C16.5569,13.1435 16.5199,13.1385 16.4799,13.1355 C16.4359,13.1355 16.3879,13.1385 16.3439,13.1475 C16.2939,13.1595 16.2389,13.1755 16.1909,13.1955 C16.1399,13.2215 16.0839,13.2505 16.0349,13.2835 C15.9849,13.3215 15.9329,13.3645 15.8889,13.4095 C15.8439,13.4605 15.7949,13.5165 15.7589,13.5715 C15.7189,13.6345 15.6829,13.6995 15.6539,13.7685 C15.6219,13.8415 15.6019,13.9195 15.5819,13.9995 C15.5669,14.0875 15.5549,14.1755 15.5579,14.2735 C15.5589,14.3725 15.5749,14.4805 15.6029,14.5895 C15.6389,14.7055 15.6859,14.8235 15.7629,14.9415 C15.8369,15.0615 15.9489,15.1785 16.0669,15.2705 C16.1189,15.3085 16.1739,15.3435 16.2289,15.3765 L16.4509,15.5065 L16.9769,15.4385 L17.0529,15.4285 L17.1339,15.4125 L17.2149,15.3915 L17.3749,15.3415 Z" id="Fill-26" fill="#1BDBB8"></path>
                        </g>
                    </g>
                </g>
            </g>
        </g>
    </g>
</svg>